<?xml version="1.0" standalone="no"?>
<!DOCTYPE svg PUBLIC "-//W3C//DTD SVG 20010904//EN"
 "http://www.w3.org/TR/2001/REC-SVG-20010904/DTD/svg10.dtd">
<svg version="1.0" xmlns="http://www.w3.org/2000/svg"
 width="2520.000000pt" height="1574.000000pt" viewBox="0 0 2520.000000 1574.000000"
 preserveAspectRatio="xMidYMid meet">

<g transform="translate(0.000000,1574.000000) scale(0.100000,-0.100000)"
fill="#000000" stroke="none">
<path d="M14412 13610 c25 -7 51 -27 79 -60 23 -27 50 -52 60 -55 17 -6 19 -17
19 -108 l-1 -102 -39 -40 c-22 -22 -40 -43 -40 -46 0 -14 -71 -51 -122 -65
-28 -7 -82 -16 -120 -20 l-68 -7 0 -131 c-2 -447 -46 -688 -174 -939 -46 -91
-76 -130 -279 -362 -145 -166 -260 -288 -319 -338 -148 -125 -295 -275 -348
-354 -62 -93 -91 -170 -97 -263 -13 -178 69 -320 314 -540 191 -173 466 -444
537 -529 271 -327 365 -638 366 -1207 l0 -162 88 -4 c105 -5 182 -37 232 -96
17 -20 40 -48 51 -60 16 -20 19 -39 19 -111 l0 -87 -64 -70 -65 -69 -1829 0
-1828 0 -36 25 c-20 13 -48 42 -62 64 -24 36 -26 49 -26 143 0 120 17 167 72
201 42 26 133 50 220 57 82 8 76 -18 82 320 3 198 9 270 24 346 49 232 132
417 286 634 102 143 122 165 444 474 185 178 345 336 355 350 70 102 114 245
102 336 -26 193 -116 312 -490 646 -294 263 -495 509 -585 719 -102 236 -140
460 -140 827 l0 181 -67 7 c-226 21 -292 75 -301 242 -3 45 -2 97 2 116 9 47
71 115 121 132 34 12 318 14 1815 15 1193 0 1787 -4 1812 -10z m-5351 -1606
c265 -42 525 -152 759 -322 106 -77 292 -267 389 -397 164 -221 290 -539 320
-807 7 -62 11 -406 11 -956 0 -760 -2 -865 -16 -913 -31 -105 -129 -169 -293
-190 -142 -18 -262 13 -343 88 -51 49 -76 101 -86 182 l-7 51 -85 -51 c-298
-180 -558 -260 -895 -275 -291 -14 -629 52 -857 167 -233 117 -481 312 -627
494 -89 111 -217 325 -266 444 -96 235 -125 390 -125 671 0 330 19 456 100
675 140 379 469 758 817 945 242 129 468 196 723 214 109 7 380 -4 481 -20z
m7221 6 c408 -30 792 -182 1000 -398 95 -99 113 -137 113 -247 0 -82 -3 -97
-33 -158 -66 -133 -202 -203 -342 -177 -69 13 -138 47 -215 105 -86 65 -244
140 -360 171 -89 24 -118 27 -270 28 -185 1 -278 -14 -404 -61 -294 -110 -549
-362 -655 -649 -23 -62 -40 -138 -56 -247 -22 -143 -23 -169 -12 -260 27 -241
111 -432 275 -628 155 -186 429 -332 691 -368 278 -39 574 34 786 192 185 139
430 436 430 522 0 11 -59 14 -318 17 l-317 3 -67 33 c-174 86 -244 290 -158
462 27 54 109 124 176 151 l59 24 535 0 c500 0 539 -1 590 -19 74 -26 149 -98
186 -179 27 -59 28 -69 28 -202 0 -92 -6 -171 -17 -230 -52 -266 -156 -499
-326 -725 -342 -458 -806 -701 -1385 -726 -355 -16 -725 83 -1018 271 -188
121 -406 335 -530 520 -73 109 -177 320 -211 430 -72 230 -106 577 -77 775 41
278 62 350 166 560 166 334 393 581 706 769 222 133 505 222 765 240 59 5 113
9 118 9 6 1 72 -3 147 -8z m-8155 -5402 c117 -29 149 -174 54 -246 -34 -27
-36 -27 -233 -30 l-198 -4 0 -655 c0 -729 3 -701 -68 -745 -42 -26 -120 -30
-169 -9 -18 7 -42 28 -53 46 -20 32 -20 49 -20 698 l0 665 -197 4 c-163 3
-204 6 -230 20 -50 28 -73 64 -73 117 0 59 26 102 76 127 36 18 71 19 514 24
505 5 532 5 597 -12z m-4940 -17 c38 -24 71 -79 233 -396 68 -132 169 -328
225 -435 56 -107 160 -307 230 -444 121 -235 127 -250 122 -294 -6 -56 -44
-95 -108 -112 -108 -29 -154 13 -276 255 -47 93 -92 178 -101 188 -14 16 -47
17 -413 17 l-397 0 -44 -87 c-96 -192 -169 -320 -198 -348 -28 -27 -38 -30
-90 -29 -65 1 -110 22 -143 67 -29 37 -25 87 10 155 16 32 106 206 200 387
310 600 535 1030 546 1044 43 52 145 68 204 32z m12882 -6 c172 -47 319 -125
372 -198 50 -70 32 -149 -46 -197 -57 -35 -95 -29 -235 38 -69 33 -155 67
-191 76 -130 32 -286 14 -414 -48 -284 -136 -404 -477 -264 -753 54 -107 178
-214 313 -271 57 -25 71 -26 226 -27 164 0 165 0 244 33 91 37 180 98 248 169
52 53 98 133 98 169 l0 24 -187 0 c-202 1 -214 3 -255 55 -18 23 -23 42 -23
88 0 55 2 61 36 92 55 50 108 57 397 53 288 -4 309 -9 350 -88 20 -40 22 -54
17 -119 -26 -283 -211 -543 -490 -686 -145 -73 -221 -90 -425 -89 -206 0 -270
13 -406 79 -237 115 -395 288 -477 523 -27 76 -31 104 -35 218 -4 110 -1 142
16 218 35 159 108 304 214 428 207 246 523 384 905 388 149 2 195 -3 321 -29z
m-8180 -5235 c45 -23 54 -37 80 -130 18 -61 18 -61 -5 -117 -24 -57 -33 -69
-55 -80 -33 -16 -119 -16 -152 0 -22 11 -31 23 -55 80 -23 56 -23 56 -5 117
26 93 35 107 80 130 36 19 104 19 112 0z" />
</g>

</svg>
