<?xml version="1.0" standalone="no"?>
<!DOCTYPE svg PUBLIC "-//W3C//DTD SVG 20010904//EN"
 "http://www.w3.org/TR/2001/REC-SVG-20010904/DTD/svg10.dtd">
<svg version="1.0" xmlns="http://www.w3.org/2000/svg"
 width="1308.000000pt" height="816.000000pt" viewBox="0 0 1308.000000 816.000000"
 preserveAspectRatio="xMidYMid meet">

<g transform="translate(0.000000,816.000000) scale(0.100000,-0.100000)"
fill="#000000" stroke="none">
<path d="M0 4080 l0 -4080 6540 0 6540 0 0 4080 0 4080 -6540 0 -6540 0 0
-4080z m7510 2961 c42 -31 63 -75 55 -121 -13 -74 -71 -120 -154 -120 l-39 0
-6 -62 c-3 -35 -8 -112 -11 -171 -7 -128 -23 -192 -70 -294 -48 -103 -117
-188 -324 -393 -203 -201 -226 -236 -225 -340 0 -80 34 -149 103 -212 290
-264 387 -373 448 -505 46 -101 64 -194 70 -374 l6 -157 63 -4 c53 -3 68 -9
94 -33 60 -57 64 -139 9 -191 l-30 -29 -951 -3 -950 -2 -34 34 c-31 31 -34 39
-34 93 0 68 17 98 66 119 18 8 54 14 79 14 l45 0 0 68 c0 123 20 296 42 362
57 177 121 264 356 489 207 198 232 235 232 335 0 112 -27 149 -254 361 -137
128 -243 250 -281 325 -54 108 -77 215 -86 395 -4 94 -8 171 -8 173 -1 1 -21
2 -46 2 -99 0 -145 46 -145 145 0 35 6 51 29 77 27 31 35 33 108 38 43 3 470
4 948 2 828 -2 871 -3 895 -21z m-2746 -832 c238 -61 421 -191 560 -398 56
-84 125 -259 137 -352 5 -36 8 -275 7 -532 -3 -452 -4 -466 -24 -494 -32 -45
-87 -66 -168 -67 -89 0 -135 20 -164 73 -12 21 -22 46 -22 54 0 30 -19 27
-102 -17 -312 -164 -687 -149 -969 40 -260 174 -419 464 -419 763 0 327 118
574 370 773 62 50 232 134 310 154 145 37 344 39 484 3z m3831 -2 c156 -31
347 -133 402 -216 61 -91 31 -209 -67 -258 -69 -35 -115 -27 -198 34 -51 38
-162 89 -220 102 -115 24 -277 4 -387 -50 -121 -58 -238 -193 -286 -329 -19
-54 -23 -86 -23 -195 -1 -124 0 -133 30 -202 77 -177 195 -284 384 -349 86
-30 253 -26 346 8 87 32 142 66 212 132 58 54 135 156 146 194 7 20 4 22 -28
22 -20 0 -95 2 -167 5 -149 6 -186 19 -229 82 -37 54 -36 146 2 195 15 19 48
45 74 57 45 21 55 22 329 19 l283 -3 39 -31 c59 -47 78 -94 77 -189 -1 -156
-79 -355 -194 -500 -131 -165 -262 -254 -475 -323 -73 -23 -95 -26 -255 -26
-208 -1 -271 13 -434 96 -89 46 -114 65 -211 162 -214 215 -295 422 -282 716
13 286 171 557 420 718 102 66 280 134 382 145 66 8 255 -2 330 -16z m-6921
-2813 c9 -12 46 -81 82 -151 152 -291 174 -334 243 -464 42 -80 71 -148 71
-165 0 -45 -20 -66 -65 -67 -47 -1 -72 26 -136 148 -50 95 -50 95 -179 90 -41
-1 -123 -3 -182 -4 l-107 -1 -51 -100 c-59 -114 -89 -145 -135 -136 -34 7 -65
39 -65 67 0 27 389 778 413 797 32 26 90 19 111 -14z m2561 30 c8 -4 23 -20
31 -36 12 -24 13 -33 2 -55 -20 -42 -53 -53 -156 -53 l-92 0 1 -339 c1 -361 0
-374 -48 -392 -33 -12 -89 5 -104 32 -7 13 -9 133 -7 357 l3 337 -107 5 c-90
4 -111 8 -127 25 -35 36 -29 93 12 113 24 11 563 17 592 6z m4094 -9 c114 -27
221 -97 221 -145 0 -25 -49 -70 -77 -70 -13 0 -47 13 -76 29 -134 75 -290 61
-397 -35 -75 -68 -111 -175 -90 -266 23 -101 68 -155 170 -209 38 -20 60 -23
140 -24 117 0 177 23 244 95 40 42 66 93 54 105 -2 2 -48 5 -102 7 -89 3 -100
6 -117 27 -26 32 -24 67 6 96 23 24 28 25 178 25 139 0 157 -2 179 -20 32 -24
38 -55 26 -123 -23 -126 -125 -255 -253 -317 -267 -131 -598 9 -671 285 -18
64 -18 170 -1 226 18 59 74 146 129 198 105 103 288 151 437 116z m-5894 -100
c24 -23 25 -31 26 -147 4 -375 1 -566 -10 -586 -12 -23 -64 -42 -94 -34 -10 3
-26 16 -35 30 -15 23 -17 65 -19 347 -1 192 2 333 8 352 20 63 81 82 124 38z
m393 9 c32 -22 30 -76 -4 -103 -15 -12 -37 -21 -49 -21 -38 0 -75 37 -75 75 0
40 29 65 75 65 17 0 41 -7 53 -16z m-25 -165 c45 -20 47 -35 49 -303 2 -224 0
-256 -15 -280 -33 -50 -106 -43 -134 13 -8 17 -12 101 -12 270 -1 263 2 281
52 301 29 12 32 12 60 -1z m7708 -36 c20 -32 21 -44 16 -148 -8 -167 9 -216
89 -262 46 -27 130 -31 173 -8 78 40 107 124 98 274 -10 141 4 175 72 187 23
4 58 -17 70 -43 6 -14 11 -84 11 -168 0 -181 -16 -234 -94 -310 -91 -90 -202
-121 -323 -91 -123 30 -205 107 -239 225 -24 79 -17 330 10 360 36 40 87 33
117 -16z m1251 8 c58 -28 132 -106 161 -169 32 -71 30 -161 -6 -234 -66 -135
-235 -215 -377 -178 -25 6 -57 14 -72 17 l-28 5 0 -107 c0 -104 -1 -107 -29
-136 -35 -34 -68 -37 -105 -8 l-27 21 3 297 3 296 30 54 c85 154 288 219 447
142z m-7128 13 c46 -45 23 -107 -46 -124 -102 -25 -118 -32 -147 -65 -36 -41
-34 -32 -31 -196 2 -143 -11 -192 -55 -209 -34 -13 -73 -3 -90 24 -23 35 -23
308 0 377 23 69 119 168 185 192 61 21 164 22 184 1z m618 -4 c73 -27 150 -96
179 -162 20 -46 24 -73 27 -200 2 -82 1 -159 -2 -173 -16 -62 -80 -84 -130
-44 -26 20 -27 20 -79 3 -76 -26 -198 -25 -260 3 -74 34 -133 88 -164 151 -23
46 -27 70 -27 132 -1 132 68 235 190 285 77 32 189 34 266 5z m936 -15 c85
-43 143 -105 163 -172 9 -32 14 -102 14 -211 0 -162 0 -164 -25 -184 -18 -15
-33 -18 -59 -14 -62 10 -65 19 -71 199 -5 158 -6 163 -34 204 -50 74 -161 93
-244 41 -61 -38 -66 -55 -72 -236 l-5 -164 -28 -24 c-57 -49 -126 -13 -128 68
-1 24 -3 63 -5 88 -12 133 28 283 93 341 81 74 140 97 249 98 74 1 88 -2 152
-34z m3126 19 c43 -43 19 -116 -40 -122 -89 -9 -160 -54 -183 -115 -6 -16 -11
-93 -11 -173 0 -142 0 -145 -26 -171 -20 -20 -31 -24 -57 -19 -18 4 -41 16
-52 27 -18 18 -20 33 -20 182 0 153 2 165 26 218 40 86 117 151 209 180 47 14
137 10 154 -7z m638 -17 c132 -65 209 -222 172 -349 -31 -103 -118 -192 -214
-220 -63 -18 -175 -15 -237 6 -138 46 -231 210 -198 351 15 64 43 112 95 158
76 70 127 87 241 84 69 -2 96 -8 141 -30z m-3045 8 c51 -15 113 -70 113 -99 0
-24 -41 -66 -64 -66 -12 0 -48 9 -81 21 -61 21 -99 19 -109 -6 -9 -24 25 -47
127 -85 89 -34 93 -37 116 -83 44 -90 10 -174 -91 -217 -106 -45 -307 -11
-324 56 -9 37 0 66 27 86 25 19 26 19 108 -7 85 -27 127 -27 138 0 9 25 -15
43 -96 70 -100 33 -146 65 -161 111 -26 77 8 157 81 194 77 40 141 47 216 25z
m-780 -1059 c-10 -8 -39 -17 -65 -21 -84 -13 -125 -43 -146 -107 -4 -13 2 -12
31 8 90 61 203 5 203 -100 0 -111 -173 -153 -237 -57 -33 49 -33 160 0 208 32
48 110 79 202 82 27 0 28 -1 12 -13z m-2135 -96 c83 -24 117 -124 62 -189 -42
-51 -122 -62 -181 -25 -23 14 -23 14 -23 -46 0 -47 -3 -60 -15 -60 -16 0 -18
43 -15 235 2 86 5 98 23 74 11 -14 16 -14 52 2 47 22 49 22 97 9z m1308 -10
c0 -24 8 -25 34 -5 26 19 109 19 146 0 59 -31 77 -108 37 -166 -41 -61 -140
-76 -188 -28 -19 19 -19 18 -19 -46 0 -51 -3 -65 -15 -65 -13 0 -15 25 -15 165
0 103 4 165 10 165 6 0 10 -9 10 -20z m472 -1 c25 -14 40 -75 36 -154 -2 -54
-6 -70 -18 -70 -8 0 -14 5 -13 12 2 8 -8 7 -34 -4 -73 -30 -153 2 -153 62 0
41 44 65 116 65 61 0 64 1 64 25 0 15 -10 31 -26 41 -22 15 -32 16 -75 6 -61
-14 -69 -15 -69 -3 0 9 38 26 75 34 24 6 73 -2 97 -14z m1110 11 c56 -16 68
-40 68 -142 0 -72 -3 -88 -15 -88 -8 0 -15 7 -15 17 0 14 -2 14 -21 -3 -32
-28 -126 -25 -151 6 -25 30 -23 56 7 85 21 22 33 25 95 25 63 0 70 2 70 20 0
27 -35 60 -62 60 -13 0 -40 -5 -61 -11 -41 -11 -58 -6 -40 12 9 9 42 20 83 28
3 0 22 -4 42 -9z m1301 -12 c27 -14 37 -51 37 -143 0 -78 -1 -83 -20 -78 -11
3 -17 9 -14 14 8 13 -10 11 -24 -3 -7 -7 -37 -12 -68 -12 -47 0 -60 4 -75 23
-26 31 -24 57 6 86 21 22 33 25 90 25 l65 0 0 29 c0 25 -6 31 -36 41 -28 10
-45 10 -77 0 -47 -14 -73 1 -30 18 57 22 104 22 146 0z m717 -8 c23 -16 25
-24 28 -114 2 -81 0 -96 -13 -96 -8 0 -15 4 -15 9 0 6 -16 3 -35 -5 -45 -18
-85 -18 -113 2 -36 25 -45 50 -28 83 19 36 32 41 112 41 61 0 64 1 64 25 0 15
-9 31 -25 41 -24 16 -50 16 -117 -1 -17 -5 -28 -3 -28 3 0 10 37 27 75 35 30
6 67 -3 95 -23z m-5198 3 c23 -21 24 -69 1 -82 -17 -9 -16 -11 5 -26 26 -19
29 -61 5 -87 -13 -15 -32 -18 -107 -18 l-91 0 -3 115 -4 115 88 0 c67 0 92 -4
106 -17z m633 -5 c29 -23 60 -83 50 -98 -3 -6 -51 -7 -115 -3 -116 6 -122 4
-100 -38 24 -44 93 -58 168 -34 36 12 26 -11 -14 -30 -52 -24 -120 -14 -158
24 -54 54 -39 164 27 191 43 17 112 11 142 -12z m176 0 c23 -45 84 -138 91
-138 4 0 31 36 60 80 76 115 88 111 88 -35 0 -94 -3 -115 -15 -115 -11 0 -15
19 -17 92 l-3 92 -54 -82 c-29 -45 -57 -82 -60 -82 -8 0 -100 137 -103 154 -1
6 -4 -31 -7 -83 -4 -62 -10 -96 -18 -99 -10 -3 -13 25 -13 117 0 114 1 121 20
121 10 0 24 -10 31 -22z m539 -92 c0 -71 -4 -117 -11 -121 -16 -10 -22 1 -24
42 -3 38 -3 38 -48 41 -44 3 -47 1 -73 -37 -16 -25 -34 -41 -46 -41 -18 0 -17
4 10 38 l29 37 -28 23 c-39 32 -40 82 -3 111 22 17 41 21 110 21 l84 0 0 -114z
m1359 99 c16 -8 36 -31 46 -51 31 -65 1 -132 -70 -160 -77 -29 -152 1 -175 72
-16 46 7 112 47 136 35 22 114 23 152 3z m301 5 c0 -5 -22 -10 -50 -10 l-50 0
0 -110 c0 -91 -3 -110 -15 -110 -12 0 -15 19 -15 110 l0 110 -50 0 c-27 0 -50
5 -50 10 0 6 45 10 115 10 70 0 115 -4 115 -10z m509 -5 c30 -15 55 -62 49
-92 -3 -16 -13 -18 -111 -14 -59 2 -107 0 -107 -3 0 -4 7 -20 15 -35 24 -47
109 -66 152 -36 27 19 43 0 17 -20 -49 -36 -138 -28 -179 15 -53 55 -37 164
28 190 34 14 105 12 136 -5z m291 5 c0 -5 -20 -10 -45 -10 l-44 0 -3 -107 c-2
-88 -6 -108 -18 -108 -16 0 -18 12 -19 143 l-1 72 -45 0 c-25 0 -45 5 -45 10
0 6 43 10 110 10 67 0 110 -4 110 -10z m210 -40 l0 -50 85 0 85 0 0 50 c0 38
4 50 15 50 13 0 15 -20 15 -120 0 -100 -2 -120 -15 -120 -12 0 -15 13 -15 55
l0 55 -85 0 -85 0 0 -50 c0 -38 -4 -50 -15 -50 -12 0 -15 19 -15 115 0 96 3
115 15 115 11 0 15 -12 15 -50z m908 34 c25 -17 29 -51 9 -79 -12 -15 -11 -21
5 -37 23 -23 23 -50 -1 -79 -17 -21 -27 -23 -107 -24 l-89 0 -3 118 -3 117 83
0 c59 0 90 -5 106 -16z m577 4 c14 -6 25 -17 25 -25 0 -16 -8 -16 -40 2 -56
32 -131 8 -149 -48 -15 -44 1 -88 38 -110 36 -21 67 -21 105 -2 35 18 55 6 31
-18 -44 -44 -153 -26 -192 32 -57 85 3 180 114 181 23 0 54 -5 68 -12z m3339
-1211 c29 -77 120 -164 189 -181 38 -9 34 -22 -10 -36 -82 -26 -155 -100 -182
-182 -15 -45 -26 -48 -35 -11 -18 68 -107 160 -183 189 -24 9 -43 20 -43 24 0
4 21 15 48 25 26 10 61 29 77 43 41 33 92 107 100 143 9 40 19 36 39 -14z"/>
<path d="M5849 6790 c-1 -3 0 -68 1 -145 3 -166 20 -245 80 -366 39 -78 57
-99 264 -304 269 -266 271 -270 271 -430 0 -97 -3 -116 -25 -160 -24 -50 -119
-150 -336 -355 -115 -109 -178 -203 -218 -322 -29 -84 -49 -246 -44 -348 l3
-65 699 -1 699 -1 -5 161 c-4 143 -8 170 -33 241 -53 154 -72 179 -295 398
-113 111 -223 227 -244 258 -43 65 -54 119 -46 230 10 130 31 162 281 409 190
189 221 224 253 287 59 119 78 199 83 366 l5 147 -38 1 c-136 4 -1354 3 -1355
-1z m1211 -579 c0 -5 -89 -94 -197 -199 -124 -118 -210 -210 -230 -244 -18
-29 -43 -94 -56 -143 -16 -64 -27 -91 -39 -93 -13 -2 -18 6 -23 35 -24 146
-76 238 -201 354 -148 138 -257 245 -276 272 l-19 27 520 0 c300 0 521 -4 521
-9z m-495 -740 c10 -31 -5 -52 -34 -49 -26 3 -38 26 -27 54 8 21 53 18 61 -5z
m53 -93 c28 -28 1 -75 -37 -63 -25 8 -34 31 -21 56 12 21 40 25 58 7z m-93
-88 c14 -45 -53 -71 -75 -29 -15 27 3 49 41 49 19 0 30 -6 34 -20z m95 -119
c15 -30 12 -40 -15 -53 -28 -13 -55 2 -55 31 0 40 51 56 70 22z m-99 -127 c19
-23 -1 -49 -37 -49 -30 0 -42 20 -30 51 7 19 50 18 67 -2z m99 -119 c26 -32
-13 -81 -47 -59 -35 22 -23 74 17 74 10 0 23 -7 30 -15z m-151 -109 c16 -20
-3 -56 -29 -56 -26 0 -45 36 -29 56 6 8 19 14 29 14 10 0 23 -6 29 -14z m211
-61 c23 -28 -9 -72 -45 -59 -36 14 -24 74 15 74 10 0 23 -7 30 -15z m-126 -71
c22 -8 20 -51 -2 -63 -37 -20 -70 27 -40 57 14 14 20 14 42 6z m93 -171 c12
-18 12 -23 -3 -37 -20 -21 -53 -17 -68 7 -9 15 -7 22 13 38 28 23 39 21 58 -8z
m-154 -37 c8 -20 -21 -56 -43 -56 -21 0 -37 40 -25 59 9 16 62 13 68 -3z m80
-104 c3 -4 1 -17 -4 -30 -7 -18 -15 -23 -35 -20 -15 2 -32 11 -38 21 -15 26
27 62 54 47 11 -6 21 -13 23 -18z"/>
<path d="M4391 5834 c-145 -39 -278 -152 -356 -303 -26 -52 -53 -197 -48 -266
6 -84 39 -190 79 -252 108 -169 246 -250 440 -260 117 -7 181 5 269 49 160 79
276 230 307 397 14 77 -1 224 -31 304 -48 124 -152 237 -269 293 -109 52 -279
68 -391 38z"/>
<path d="M1542 3058 l-58 -123 40 -7 c23 -3 80 -7 129 -7 105 -1 105 0 43 102
-24 39 -53 91 -65 115 -12 23 -23 42 -26 42 -2 0 -30 -55 -63 -122z"/>
<path d="M11558 3010 c-41 -12 -87 -48 -103 -80 -21 -41 -19 -106 6 -156 58
-122 265 -108 314 20 20 52 16 112 -9 151 -32 49 -146 85 -208 65z"/>
<path d="M5022 2990 c-98 -60 -97 -201 1 -274 23 -17 43 -21 102 -20 64 0 78
4 109 28 47 35 66 74 66 131 0 62 -21 99 -73 130 -57 33 -155 35 -205 5z"/>
<path d="M9736 3005 c-139 -49 -150 -232 -18 -296 33 -16 56 -20 101 -17 71 5
111 32 141 93 41 85 5 175 -85 216 -48 22 -86 23 -139 4z"/>
<path d="M5946 1925 c-31 -29 -34 -67 -6 -112 41 -68 151 -53 175 25 9 29 -12
90 -35 102 -36 19 -105 12 -134 -15z"/>
<path d="M3910 1953 c-98 -36 -68 -183 38 -183 77 0 122 72 88 138 -21 40 -81
61 -126 45z"/>
<path d="M5364 1950 c-55 -22 -73 -109 -30 -149 62 -58 176 -21 176 59 0 70
-78 118 -146 90z"/>
<path d="M5670 1853 c-75 -15 -60 -83 18 -83 43 1 81 28 84 62 3 20 -1 23 -37
24 -22 1 -51 0 -65 -3z"/>
<path d="M6793 1850 c-25 -10 -31 -48 -11 -68 17 -17 73 -15 108 3 23 12 30
22 30 45 0 30 -1 30 -52 29 -29 0 -63 -4 -75 -9z"/>
<path d="M8060 1847 c-51 -26 -27 -77 36 -77 49 0 84 25 84 61 0 28 -2 29 -47
29 -27 0 -59 -6 -73 -13z"/>
<path d="M8773 1850 c-29 -12 -31 -55 -4 -70 54 -28 131 0 131 48 0 26 -3 27
-53 29 -28 1 -62 -3 -74 -7z"/>
<path d="M3550 1920 l0 -40 51 0 c60 0 89 13 89 41 0 24 -36 39 -96 39 l-44 0
0 -40z"/>
<path d="M3550 1805 l0 -35 58 0 c64 0 96 16 90 46 -3 16 -13 19 -76 22 l-72
3 0 -36z"/>
<path d="M4214 1950 c-21 -8 -54 -46 -54 -62 0 -5 43 -8 95 -8 61 0 95 4 95 11
0 6 -13 24 -29 40 -30 30 -65 36 -107 19z"/>
<path d="M4890 1947 c-15 -7 -26 -23 -28 -39 -5 -38 29 -58 101 -58 l58 0 -3
53 -3 52 -50 3 c-27 1 -61 -4 -75 -11z"/>
<path d="M6278 1945 c-33 -18 -52 -72 -39 -107 22 -59 92 -84 150 -53 33 17
41 33 41 85 0 73 -81 113 -152 75z"/>
<path d="M7104 1950 c-21 -8 -54 -46 -54 -62 0 -5 43 -8 95 -8 52 0 95 4 95 9
0 52 -76 86 -136 61z"/>
<path d="M8477 1953 c-4 -3 -7 -21 -7 -40 l0 -33 59 0 c41 0 65 5 75 16 35 34
4 64 -68 64 -29 0 -56 -3 -59 -7z"/>
<path d="M8470 1810 l0 -40 58 0 c68 0 95 15 90 51 -3 23 -7 24 -75 27 l-73 3
0 -41z"/>
</g>
</svg>
