<?xml version="1.0" standalone="no"?>
<!DOCTYPE svg PUBLIC "-//W3C//DTD SVG 20010904//EN"
 "http://www.w3.org/TR/2001/REC-SVG-20010904/DTD/svg10.dtd">
<svg version="1.0" xmlns="http://www.w3.org/2000/svg"
 width="2520.000000pt" height="1574.000000pt" viewBox="0 0 2520.000000 1574.000000"
 preserveAspectRatio="xMidYMid meet">

<g transform="translate(0.000000,1574.000000) scale(0.100000,-0.100000)"
fill="#000000" stroke="none">
<path d="M0 7870 l0 -7870 12600 0 12600 0 0 7870 0 7870 -12600 0 -12600 0 0
-7870z m14412 5740 c25 -7 51 -27 79 -60 23 -27 50 -52 60 -55 17 -6 19 -17
19 -108 l-1 -102 -39 -40 c-22 -22 -40 -43 -40 -46 0 -14 -71 -51 -122 -65
-28 -7 -82 -16 -120 -20 l-68 -7 0 -131 c-2 -447 -46 -688 -174 -939 -46 -91
-76 -130 -279 -362 -145 -166 -260 -288 -319 -338 -148 -125 -295 -275 -348
-354 -62 -93 -91 -170 -97 -263 -13 -178 69 -320 314 -540 191 -173 466 -444
537 -529 271 -327 365 -638 366 -1207 l0 -162 88 -4 c105 -5 182 -37 232 -96
17 -20 40 -48 51 -60 16 -20 19 -39 19 -111 l0 -87 -64 -70 -65 -69 -1829 0
-1828 0 -36 25 c-20 13 -48 42 -62 64 -24 36 -26 49 -26 143 0 120 17 167 72
201 42 26 133 50 220 57 82 8 76 -18 82 320 3 198 9 270 24 346 49 232 132
417 286 634 102 143 122 165 444 474 185 178 345 336 355 350 70 102 114 245
102 336 -26 193 -116 312 -490 646 -294 263 -495 509 -585 719 -102 236 -140
460 -140 827 l0 181 -67 7 c-226 21 -292 75 -301 242 -3 45 -2 97 2 116 9 47
71 115 121 132 34 12 318 14 1815 15 1193 0 1787 -4 1812 -10z m-5351 -1606
c265 -42 525 -152 759 -322 106 -77 292 -267 389 -397 164 -221 290 -539 320
-807 7 -62 11 -406 11 -956 0 -760 -2 -865 -16 -913 -31 -105 -129 -169 -293
-190 -142 -18 -262 13 -343 88 -51 49 -76 101 -86 182 l-7 51 -85 -51 c-298
-180 -558 -260 -895 -275 -291 -14 -629 52 -857 167 -233 117 -481 312 -627
494 -89 111 -217 325 -266 444 -96 235 -125 390 -125 671 0 330 19 456 100
675 140 379 469 758 817 945 242 129 468 196 723 214 109 7 380 -4 481 -20z
m7221 6 c408 -30 792 -182 1000 -398 95 -99 113 -137 113 -247 0 -82 -3 -97
-33 -158 -66 -133 -202 -203 -342 -177 -69 13 -138 47 -215 105 -86 65 -244
140 -360 171 -89 24 -118 27 -270 28 -185 1 -278 -14 -404 -61 -294 -110 -549
-362 -655 -649 -23 -62 -40 -138 -56 -247 -22 -143 -23 -169 -12 -260 27 -241
111 -432 275 -628 155 -186 429 -332 691 -368 278 -39 574 34 786 192 185 139
430 436 430 522 0 11 -59 14 -318 17 l-317 3 -67 33 c-174 86 -244 290 -158
462 27 54 109 124 176 151 l59 24 535 0 c500 0 539 -1 590 -19 74 -26 149 -98
186 -179 27 -59 28 -69 28 -202 0 -92 -6 -171 -17 -230 -52 -266 -156 -499
-326 -725 -342 -458 -806 -701 -1385 -726 -355 -16 -725 83 -1018 271 -188
121 -406 335 -530 520 -73 109 -177 320 -211 430 -72 230 -106 577 -77 775 41
278 62 350 166 560 166 334 393 581 706 769 222 133 505 222 765 240 59 5 113
9 118 9 6 1 72 -3 147 -8z m-8155 -5402 c117 -29 149 -174 54 -246 -34 -27
-36 -27 -233 -30 l-198 -4 0 -655 c0 -729 3 -701 -68 -745 -42 -26 -120 -30
-169 -9 -18 7 -42 28 -53 46 -20 32 -20 49 -20 698 l0 665 -197 4 c-163 3
-204 6 -230 20 -50 28 -73 64 -73 117 0 59 26 102 76 127 36 18 71 19 514 24
505 5 532 5 597 -12z m-4940 -17 c38 -24 71 -79 233 -396 68 -132 169 -328
225 -435 56 -107 160 -307 230 -444 121 -235 127 -250 122 -294 -6 -56 -44
-95 -108 -112 -108 -29 -154 13 -276 255 -47 93 -92 178 -101 188 -14 16 -47
17 -413 17 l-397 0 -44 -87 c-96 -192 -169 -320 -198 -348 -28 -27 -38 -30
-90 -29 -65 1 -110 22 -143 67 -29 37 -25 87 10 155 16 32 106 206 200 387
310 600 535 1030 546 1044 43 52 145 68 204 32z m12882 -6 c172 -47 319 -125
372 -198 50 -70 32 -149 -46 -197 -57 -35 -95 -29 -235 38 -69 33 -155 67
-191 76 -130 32 -286 14 -414 -48 -284 -136 -404 -477 -264 -753 54 -107 178
-214 313 -271 57 -25 71 -26 226 -27 164 0 165 0 244 33 91 37 180 98 248 169
52 53 98 133 98 169 l0 24 -187 0 c-202 1 -214 3 -255 55 -18 23 -23 42 -23
88 0 55 2 61 36 92 55 50 108 57 397 53 288 -4 309 -9 350 -88 20 -40 22 -54
17 -119 -26 -283 -211 -543 -490 -686 -145 -73 -221 -90 -425 -89 -206 0 -270
13 -406 79 -237 115 -395 288 -477 523 -27 76 -31 104 -35 218 -4 110 -1 144
17 215 83 329 351 579 701 654 90 20 342 13 429 -10z m-10671 -140 c16 -3 44
-21 62 -40 60 -61 42 -165 -35 -210 -48 -29 -111 -33 -155 -10 -35 18 -75 70
-84 108 -9 36 25 109 62 136 43 30 63 32 150 16z m-722 -15 c18 -12 43 -41 56
-68 l23 -47 0 -640 0 -640 -23 -45 c-12 -25 -34 -53 -48 -64 -67 -48 -180 -22
-222 53 -22 39 -22 39 -22 696 l0 658 25 43 c14 24 38 50 53 58 40 22 118 20
158 -4z m736 -331 c15 -6 39 -30 55 -52 l28 -42 2 -490 3 -490 -23 -39 c-12
-22 -33 -48 -47 -58 -66 -48 -171 -27 -218 45 l-27 41 -3 475 c-3 523 -3 528
57 585 46 44 103 52 173 25z m3508 -19 c39 -28 60 -69 60 -117 0 -83 -46 -121
-176 -147 -152 -29 -239 -81 -287 -171 -21 -38 -22 -53 -22 -310 -1 -282 -6
-331 -46 -387 -38 -52 -147 -62 -209 -18 -57 41 -65 86 -65 375 0 217 3 271
18 325 56 207 194 361 390 435 130 48 280 55 337 15z m1128 4 c31 -8 95 -33
142 -56 147 -71 253 -196 306 -358 15 -46 18 -102 21 -355 4 -274 2 -303 -14
-335 -26 -50 -76 -80 -134 -80 -61 0 -94 13 -130 51 l-28 30 -76 -30 c-41 -17
-105 -36 -142 -42 -81 -14 -257 -6 -326 16 -183 56 -341 205 -414 390 -24 62
-27 83 -27 185 0 100 3 125 27 190 80 219 261 368 497 409 68 12 222 4 298
-15z m1786 -12 c214 -74 384 -242 425 -422 6 -26 11 -176 11 -348 0 -343 0
-346 -75 -382 -52 -25 -98 -25 -153 0 -72 32 -75 48 -82 390 -6 330 -4 321
-82 402 -156 160 -445 128 -556 -61 l-27 -46 -5 -290 c-5 -272 -6 -292 -26
-330 -36 -67 -57 -80 -129 -80 -72 0 -106 18 -140 76 -18 31 -20 56 -23 285
-4 290 6 374 62 488 76 160 256 300 438 341 101 23 257 13 362 -23z m6073 18
c52 -23 83 -70 83 -125 0 -85 -45 -123 -176 -149 -153 -31 -239 -82 -287 -171
-21 -38 -22 -53 -23 -315 0 -247 -2 -281 -20 -329 -26 -74 -58 -96 -137 -96
-79 0 -118 25 -144 93 -16 41 -18 79 -18 312 1 225 3 275 19 330 59 211 208
365 422 435 115 37 220 43 281 15z m1179 -14 c102 -33 211 -103 286 -184 65
-71 131 -194 148 -279 17 -81 8 -214 -20 -288 -65 -171 -219 -331 -373 -385
-117 -41 -335 -48 -450 -15 -240 70 -430 303 -444 545 -10 156 56 327 170 442
88 90 252 172 382 192 76 11 221 -2 301 -28z m1083 24 c40 -11 76 -42 99 -85
14 -25 18 -75 22 -315 l5 -285 28 -57 c30 -60 90 -113 163 -144 58 -24 244
-16 300 13 53 28 136 119 153 169 10 27 16 122 20 319 4 154 11 289 15 300 37
86 137 116 229 68 55 -28 61 -60 65 -359 4 -309 -1 -354 -57 -470 -72 -150
-207 -265 -378 -322 -67 -22 -96 -25 -203 -26 -103 0 -138 4 -200 23 -151 47
-258 118 -337 224 -103 139 -123 234 -123 579 0 255 5 284 53 336 38 41 82 51
146 32z m2355 -6 c117 -29 223 -90 311 -179 129 -129 185 -256 185 -419 -1
-155 -57 -280 -186 -412 -55 -56 -89 -80 -155 -112 -116 -55 -173 -67 -319
-67 -114 1 -133 4 -218 33 -51 18 -95 32 -98 32 -2 0 -4 -92 -4 -203 0 -193
-1 -206 -23 -247 -28 -53 -75 -80 -140 -80 -58 0 -94 19 -127 68 l-25 36 -3
490 c-3 551 1 597 62 721 48 96 112 165 220 237 99 66 129 81 209 103 71 19
234 19 311 -1z m-9236 -39 c116 -28 190 -79 217 -150 22 -56 14 -103 -24 -144
-26 -27 -35 -31 -84 -31 -35 0 -83 10 -129 26 -104 38 -138 45 -179 34 -52
-14 -64 -32 -46 -67 20 -37 66 -62 212 -113 189 -66 252 -118 282 -232 18 -70
17 -94 -7 -171 -46 -150 -208 -237 -441 -239 -192 -1 -341 55 -388 146 -23 44
-24 51 -12 94 7 27 26 61 44 80 43 44 87 43 239 -8 165 -56 209 -56 241 0 10
17 15 35 12 40 -9 15 -69 43 -170 80 -109 40 -241 104 -273 134 -49 44 -66 94
-66 196 -1 87 1 99 29 148 31 58 62 88 129 127 100 58 284 80 414 50z m-1470
-2037 c-3 -19 -18 -24 -128 -49 -149 -32 -194 -49 -238 -92 -31 -30 -62 -105
-62 -151 0 -17 6 -14 43 20 64 62 141 83 232 64 130 -27 205 -144 175 -272
-10 -39 -24 -63 -59 -98 -52 -51 -100 -70 -181 -70 -80 0 -130 19 -180 70 -63
62 -85 136 -78 257 6 103 28 161 79 212 45 46 97 67 242 101 154 35 159 36
155 8z m-4418 -246 l0 -46 33 31 c52 49 95 67 167 67 79 0 130 -16 176 -57 78
-68 100 -177 55 -270 -67 -138 -270 -171 -396 -65 l-30 26 0 -127 0 -126 -25
0 -25 0 -3 307 c-2 286 -1 307 15 310 28 7 33 0 33 -50z m859 47 c71 -15 127
-59 157 -122 13 -29 24 -64 24 -79 l0 -28 -215 0 c-210 0 -215 0 -215 -20 0
-41 39 -99 85 -125 79 -47 185 -44 258 7 22 16 31 17 42 8 20 -16 6 -34 -49
-63 -59 -31 -203 -31 -261 0 -192 103 -156 381 55 424 52 10 64 10 119 -2z
m495 -165 c60 -90 110 -164 112 -164 2 0 53 74 113 164 99 148 136 188 155
168 3 -3 6 -106 6 -229 l0 -223 -25 0 -25 0 0 187 0 187 -106 -157 c-58 -86
-112 -157 -119 -157 -6 0 -59 70 -116 157 l-104 156 -3 -186 -2 -187 -25 0
-25 0 0 224 c0 300 4 302 164 60z m966 -60 l0 -224 -25 0 c-25 0 -25 1 -25 80
l0 80 -94 0 -95 0 -63 -80 c-52 -67 -68 -80 -92 -80 l-28 0 38 48 c21 26 48
60 61 75 30 37 29 41 -12 56 -74 26 -106 134 -59 197 47 63 63 69 222 74 81 3
153 3 160 1 9 -2 12 -57 12 -227z m500 185 l0 -39 44 34 c123 94 311 57 382
-75 26 -49 25 -152 -3 -204 -40 -76 -103 -115 -198 -122 -79 -7 -137 10 -185
53 l-39 36 -3 -129 c-3 -124 -4 -128 -25 -131 l-23 -3 0 309 c0 170 3 311 6
314 3 3 14 4 25 1 15 -4 19 -14 19 -44z m884 23 c16 -9 38 -30 50 -45 19 -26
21 -44 24 -208 l3 -179 -25 0 c-23 0 -26 4 -26 37 l0 36 -23 -21 c-77 -72
-242 -70 -307 5 -36 40 -39 83 -10 131 30 48 74 62 216 69 l124 6 0 32 c0 53
-38 98 -95 112 -59 15 -140 4 -191 -26 -30 -18 -54 -13 -54 11 0 11 72 46 117
58 52 13 162 3 197 -18z m1209 4 c87 -36 136 -112 137 -209 0 -71 -24 -121
-80 -170 -52 -44 -112 -61 -195 -55 -271 22 -308 371 -47 445 53 14 137 10
185 -11z m615 10 c2 -3 2 -12 -1 -21 -5 -12 -25 -15 -102 -15 l-95 0 0 -205 0
-205 -25 0 -25 0 0 205 0 205 -95 0 c-78 0 -97 3 -102 16 -3 9 -1 19 5 23 11
7 432 4 440 -3z m381 -15 c67 -34 76 -64 79 -258 l4 -173 -26 0 c-23 0 -26 4
-26 35 l0 35 -45 -32 c-37 -26 -58 -33 -108 -36 -127 -8 -207 39 -207 123 0
51 28 91 79 112 22 9 84 17 158 21 122 5 123 5 123 29 0 40 -30 93 -63 110
-49 25 -144 20 -211 -10 -52 -24 -57 -25 -65 -8 -8 14 -4 21 19 34 80 48 217
56 289 18z m520 18 c71 -15 127 -59 157 -122 13 -29 24 -64 24 -79 l0 -28
-215 0 c-210 0 -215 0 -215 -20 0 -42 39 -99 87 -127 41 -24 59 -28 124 -28
66 0 81 4 118 28 34 23 45 26 57 16 19 -15 4 -33 -50 -62 -59 -31 -203 -31
-261 0 -192 103 -156 381 55 424 52 10 64 10 119 -2z m651 -19 c0 -19 -7 -20
-100 -20 l-100 0 0 -205 0 -205 -25 0 -25 0 0 205 0 205 -95 0 c-78 0 -97 3
-102 16 -3 9 -1 19 5 23 5 3 107 5 226 3 207 -3 216 -4 216 -22z m390 -81 l0
-99 170 0 170 0 0 99 c0 81 3 100 16 105 9 3 20 4 25 0 5 -3 9 -106 9 -230 l0
-224 -25 0 -25 0 0 105 0 105 -170 0 -170 0 0 -105 0 -105 -25 0 -25 0 0 223
c0 123 3 226 6 229 3 3 14 4 25 1 17 -5 19 -15 19 -104z m879 82 c67 -34 76
-64 79 -258 l4 -173 -26 0 c-23 0 -26 4 -26 35 l0 35 -46 -33 c-43 -30 -51
-32 -132 -32 -68 0 -94 4 -118 19 -88 53 -84 164 7 212 19 10 74 17 159 21
130 6 130 6 130 31 0 39 -30 92 -63 109 -49 25 -144 20 -211 -10 -52 -24 -57
-25 -65 -8 -8 14 -4 21 19 34 80 48 217 56 289 18z m848 2 c32 -19 63 -63 63
-90 0 -36 -25 -78 -56 -92 l-27 -12 34 -17 c20 -10 41 -32 52 -53 15 -32 16
-41 5 -75 -26 -76 -98 -99 -303 -92 l-100 3 -3 219 c-1 126 2 222 7 225 17 11
305 -4 328 -16z m520 3 c15 -8 39 -26 53 -41 25 -26 25 -30 28 -212 l3 -185
-23 4 c-17 2 -24 11 -26 31 l-3 27 -27 -18 c-97 -67 -262 -51 -312 30 -24 40
-25 60 -4 104 27 57 75 74 220 81 l124 6 0 38 c0 105 -137 148 -272 84 -45
-20 -68 -18 -68 7 0 11 72 46 117 58 50 12 155 5 190 -14z m601 -5 c20 -10 45
-28 55 -39 18 -20 18 -21 -2 -31 -13 -8 -22 -8 -26 -1 -4 6 -25 20 -47 31 -70
36 -180 25 -239 -23 -81 -66 -77 -226 8 -286 83 -57 202 -54 268 8 17 16 23
17 39 5 23 -17 16 -28 -40 -61 -55 -32 -160 -44 -220 -24 -183 60 -228 276
-82 393 72 58 203 71 286 28z m-10624 5 c40 -17 76 -60 76 -93 0 -36 -25 -78
-56 -92 l-27 -12 34 -17 c20 -10 41 -32 53 -55 16 -34 17 -42 5 -74 -28 -74
-83 -92 -276 -93 l-123 0 0 225 0 225 140 0 c97 0 151 -4 174 -14z"/>
<path d="M12603 13113 l-1353 -3 0 -48 c0 -26 5 -141 10 -257 18 -396 78 -602
248 -839 65 -91 272 -310 382 -405 333 -288 485 -464 542 -630 21 -61 23 -81
21 -256 l-2 -190 -36 -70 c-20 -39 -64 -109 -99 -155 -60 -80 -287 -305 -491
-487 -277 -247 -423 -458 -504 -733 -46 -154 -59 -258 -67 -522 l-7 -238 1357
0 1356 0 -5 68 c-3 37 -7 164 -9 282 -4 191 -7 225 -29 310 -59 219 -130 380
-222 501 -27 36 -206 218 -397 405 -372 363 -440 439 -494 550 -44 92 -54 148
-54 308 0 145 12 205 59 301 64 129 132 204 561 621 270 262 338 339 406 460
83 149 147 355 163 529 11 115 26 507 20 503 -2 -2 -613 -4 -1356 -5z m996
-1135 c-17 -32 -242 -255 -457 -452 -225 -207 -351 -346 -398 -441 -22 -45
-47 -125 -69 -225 -45 -198 -41 -187 -71 -193 -21 -4 -28 2 -45 34 -10 21 -24
73 -30 116 -13 99 -40 178 -90 273 -82 153 -103 175 -622 657 -119 110 -227
226 -227 244 0 5 389 9 1010 9 l1011 0 -12 -22z m-949 -1400 c48 -52 4 -147
-63 -134 -45 9 -67 33 -67 74 0 72 83 110 130 60z m90 -188 c43 -23 40 -116
-5 -134 -30 -11 -83 -6 -99 10 -23 23 -21 89 4 114 21 21 69 26 100 10z m-189
-159 c35 -36 38 -75 7 -108 -47 -50 -138 -12 -138 57 0 39 39 80 75 80 16 0
38 -12 56 -29z m197 -244 c40 -37 26 -107 -27 -125 -41 -14 -69 -5 -86 29 -48
92 37 165 113 96z m-193 -242 c53 -52 20 -125 -55 -125 -44 0 -90 34 -90 65 0
22 27 72 42 78 34 14 80 6 103 -18z m194 -238 c41 -34 31 -95 -21 -127 -42
-25 -41 -26 -83 11 -54 48 -45 109 20 128 32 10 62 5 84 -12z m-289 -199 c23
-25 25 -42 9 -87 -18 -51 -80 -69 -111 -33 -61 69 -39 142 42 142 27 0 45 -7
60 -22z m402 -120 c25 -12 33 -53 18 -89 -37 -87 -145 -52 -138 45 4 60 54 78
120 44z m-214 -173 l37 -34 -21 -38 c-21 -36 -25 -38 -77 -41 -49 -3 -57 0
-67 19 -15 27 -6 85 16 110 27 30 69 24 112 -16z m161 -300 c17 -20 31 -38 31
-40 0 -2 -14 -20 -31 -40 -38 -43 -89 -48 -126 -13 -49 46 -13 128 57 128 31
0 44 -6 69 -35z m-301 -77 c19 -41 -6 -94 -54 -114 -20 -8 -42 -13 -49 -11
-12 5 -55 88 -55 107 0 5 9 19 21 31 16 16 30 19 72 17 45 -3 54 -7 65 -30z
m143 -189 c16 -17 29 -38 29 -46 0 -20 -64 -83 -83 -83 -36 0 -69 22 -82 55
-19 45 -20 42 16 76 42 39 82 39 120 -2z"/>
<path d="M8622 11280 c-264 -27 -491 -147 -684 -362 -146 -163 -207 -299 -242
-540 -49 -336 -2 -523 199 -794 154 -207 383 -354 640 -410 126 -27 323 -23
450 10 144 37 317 126 431 220 162 133 302 346 356 542 19 69 22 103 21 274 0
232 -13 292 -97 467 -121 247 -353 456 -605 542 -138 47 -313 66 -469 51z"/>
<path d="M3075 6088 c-10 -18 -64 -124 -122 -235 l-105 -203 256 0 c141 0 256
2 256 4 0 4 -257 457 -264 463 -2 3 -12 -10 -21 -29z"/>
<path d="M9780 5803 c-66 -17 -102 -36 -151 -80 -50 -45 -74 -90 -89 -169 -10
-51 -9 -71 4 -123 39 -151 151 -233 321 -233 196 -1 337 125 339 302 1 101
-17 146 -83 211 -41 40 -73 61 -111 74 -79 26 -171 33 -230 18z"/>
<path d="M18755 5797 c-59 -23 -93 -47 -133 -92 -56 -63 -75 -109 -80 -187 -4
-59 0 -75 25 -130 37 -77 90 -133 157 -164 43 -20 67 -24 156 -24 127 0 180
20 251 97 92 98 115 244 56 346 -39 66 -119 134 -180 152 -60 18 -208 19 -252
2z"/>
<path d="M22224 5787 c-70 -34 -128 -88 -158 -150 -33 -66 -36 -188 -7 -254
27 -59 94 -128 154 -158 45 -22 63 -25 157 -25 95 0 112 3 160 27 108 53 170
142 178 254 7 97 -16 165 -75 224 -73 72 -136 98 -258 102 -90 4 -105 2 -151
-20z"/>
<path d="M11505 3755 c-69 -37 -98 -85 -98 -161 0 -71 34 -130 93 -162 37 -19
56 -23 111 -20 115 6 180 73 180 183 0 64 -19 105 -68 142 -31 24 -47 28 -112
31 -56 2 -84 -1 -106 -13z"/>
<path d="M7565 3780 c-153 -22 -215 -203 -106 -311 91 -91 264 -70 322 41 26
48 25 131 -2 179 -38 68 -123 104 -214 91z"/>
<path d="M8146 3779 c-52 -12 -93 -43 -116 -89 -37 -72 -42 -70 170 -70 140 0
190 3 190 12 0 6 -9 31 -21 55 -35 73 -132 113 -223 92z"/>
<path d="M9414 3766 c-38 -17 -68 -75 -59 -115 14 -66 74 -89 233 -90 l82 -1
0 110 0 110 -112 0 c-72 -1 -124 -6 -144 -14z"/>
<path d="M10371 3778 c-124 -21 -189 -154 -131 -268 76 -150 326 -123 370 40
38 140 -83 255 -239 228z"/>
<path d="M10915 3583 c-77 -17 -108 -58 -84 -114 15 -39 60 -59 128 -59 63 0
98 13 139 53 27 26 32 38 32 79 l0 48 -97 -1 c-54 -1 -107 -3 -118 -6z"/>
<path d="M12165 3780 c-155 -22 -216 -201 -106 -311 71 -71 186 -78 274 -17
59 42 85 147 53 221 -12 29 -77 96 -94 97 -4 1 -25 4 -47 8 -22 4 -58 5 -80 2z"/>
<path d="M13100 3580 c-83 -20 -96 -116 -20 -155 36 -19 130 -19 173 -1 53 22
87 70 87 122 l0 44 -102 -1 c-57 -1 -119 -5 -138 -9z"/>
<path d="M13722 3779 c-55 -10 -98 -41 -122 -89 -37 -72 -42 -70 170 -70 140
0 190 3 190 12 0 6 -9 31 -21 55 -35 72 -122 109 -217 92z"/>
<path d="M15540 3580 c-83 -20 -96 -116 -20 -155 38 -20 133 -19 176 1 54 26
84 68 84 120 l0 44 -102 -1 c-57 -1 -119 -5 -138 -9z"/>
<path d="M16320 3706 l0 -86 100 0 c114 0 164 15 182 54 8 19 8 32 0 50 -20
45 -52 57 -171 63 l-111 6 0 -87z"/>
<path d="M16320 3494 l0 -86 119 4 c103 3 124 6 148 24 47 35 44 103 -7 129
-21 11 -61 15 -145 15 l-115 0 0 -86z"/>
<path d="M16922 3580 c-49 -11 -72 -37 -72 -80 0 -58 35 -83 120 -88 61 -4 75
-1 115 22 54 32 65 51 65 110 l0 46 -97 -1 c-54 -1 -113 -5 -131 -9z"/>
<path d="M6830 3706 l0 -86 100 0 c114 0 164 15 182 54 8 19 8 32 0 50 -20 45
-52 57 -171 63 l-111 6 0 -87z"/>
<path d="M6830 3495 l0 -87 119 4 c103 3 124 6 148 24 36 27 43 80 14 115 -18
23 -26 24 -150 27 l-131 4 0 -87z"/>
</g>
</svg>
